<svg width="28" height="28" viewBox="0 0 28 28" fill="none" xmlns="http://www.w3.org/2000/svg">
<path d="M6.75 11.2324V10.7998L6.37554 10.5832C5.99996 10.366 5.75 9.96173 5.75 9.5V7.5C5.75 6.80964 6.30964 6.25 7 6.25H21C21.6904 6.25 22.25 6.80964 22.25 7.5V9.5C22.25 9.96173 22 10.366 21.6245 10.5832L21.25 10.7998V11.2324V18.5C21.25 20.2949 19.7949 21.75 18 21.75H10C8.20507 21.75 6.75 20.2949 6.75 18.5V11.2324Z" stroke="#69718C" stroke-width="1.5"/>
<path d="M12.5 18H14.4487C15.5816 18 16.5 17.0816 16.5 15.9487V15.9487C16.5 14.8158 15.5816 13.8974 14.4487 13.8974H11.5L13 12" stroke="#B4BACC" stroke-width="2" stroke-linecap="round" stroke-linejoin="round"/>
</svg>
