<svg width="28" height="28" viewBox="0 0 28 28" fill="none" xmlns="http://www.w3.org/2000/svg">
<path d="M13 15C13 14.4477 13.4477 14 14 14C14.5523 14 15 14.4477 15 15V19C15 19.5523 14.5523 20 14 20C13.4477 20 13 19.5523 13 19V15Z" fill="#B4BACC"/>
<path d="M22.6689 9.99643L22.672 10.0125L22.6758 10.0284C22.7241 10.2317 22.75 10.4454 22.75 10.6667C22.75 11.6114 22.2776 12.4247 21.59 12.8735L21.25 13.0955V13.5015V19C21.25 20.7949 19.7949 22.25 18 22.25H10C8.20507 22.25 6.75 20.7949 6.75 19V13.5015V13.0955L6.40999 12.8735C5.72241 12.4247 5.25 11.6114 5.25 10.6667C5.25 10.4862 5.26723 10.3108 5.29978 10.142L5.47181 9.25H5.46859L5.64412 8.34362C5.94165 6.80724 7.2104 5.75 8.63123 5.75H19.3642C20.7867 5.75 22.0566 6.80976 22.3523 8.34855L22.6689 9.99643Z" stroke="#69718C" stroke-width="1.5"/>
</svg>
